HIERARCHY
ROOT hip
{
	OFFSET 0.000000 0.000000 0.000000 
	CHANNELS 6 Xposition Yposition Zposition Xrotation Zrotation Yrotation
	JOINT abdomen
	{
		OFFSET 0.000000 3.402643 0.000000 
		CHANNELS 3 Xrotation Zrotation Yrotation
		JOINT chest
		{
			OFFSET 0.000000 8.438565 -0.680529 
			CHANNELS 3 Xrotation Zrotation Yrotation
			JOINT neck
			{
				OFFSET 0.000000 10.207942 -0.272212 
				CHANNELS 3 Xrotation Zrotation Yrotation
				JOINT head
				{
					OFFSET 0.000000 3.130431 0.000000 
					CHANNELS 3 Xrotation Zrotation Yrotation
					End Site
					{
						OFFSET 0.000000 3.130435 0.000000 
					}
				}
			}
			JOINT lCollar
			{
				OFFSET 3.470700 6.669187 -0.816635 
				CHANNELS 3 Yrotation Zrotation Xrotation
				JOINT lShldr
				{
					OFFSET 3.198488 0.000000 0.000000 
					CHANNELS 3 Zrotation Yrotation Xrotation
					JOINT lForeArm
					{
						OFFSET 10.139888 0.000000 0.000000 
						CHANNELS 3 Yrotation Zrotation Xrotation
						JOINT lHand
						{
							OFFSET 8.370511 0.000000 0.000000 
							CHANNELS 3 Zrotation Yrotation Xrotation
							End Site
							{
								OFFSET 4.083176 0.000000 0.000000 
							}
						}
					}
				}
			}
			JOINT rCollar
			{
				OFFSET -3.470700 6.669187 -0.816635 
				CHANNELS 3 Yrotation Zrotation Xrotation
				JOINT rShldr
				{
					OFFSET -3.198488 0.000000 0.000000 
					CHANNELS 3 Zrotation Yrotation Xrotation
					JOINT rForeArm
					{
						OFFSET -10.139888 0.000000 0.000000 
						CHANNELS 3 Yrotation Zrotation Xrotation
						JOINT rHand
						{
							OFFSET -8.370511 0.000000 0.000000 
							CHANNELS 3 Zrotation Yrotation Xrotation
							End Site
							{
								OFFSET -4.083176 0.000000 0.000000 
							}
						}
					}
				}
			}
		}
	}
	JOINT lThigh
	{
		OFFSET 5.308129 -1.633274 1.361059 
		CHANNELS 3 Xrotation Zrotation Yrotation
		JOINT lShin
		{
			OFFSET -2.041588 -20.007561 0.000000 
			CHANNELS 3 Xrotation Zrotation Yrotation
			JOINT lFoot
			{
				OFFSET 0.000000 -19.190928 -1.224953 
				CHANNELS 3 Xrotation Yrotation Zrotation
				End Site
				{
					OFFSET 0.000000 -2.449906 4.627600 
				}
			}
		}
	}
	JOINT rThigh
	{
		OFFSET -5.308129 -1.633274 1.361059 
		CHANNELS 3 Xrotation Zrotation Yrotation
		JOINT rShin
		{
			OFFSET 2.041588 -20.007561 0.000000 
			CHANNELS 3 Xrotation Zrotation Yrotation
			JOINT rFoot
			{
				OFFSET 0.000000 -19.190928 -1.224953 
				CHANNELS 3 Xrotation Yrotation Zrotation
				End Site
				{
					OFFSET 0.000000 -2.449906 4.627600 
				}
			}
		}
	}
}
MOTION
Frames: 15
Frame Time: 0.016667
-0.132768 48.362404 0.248672 -1.638513 2.623298 5.787686 24.022806 -3.085698 -0.713960 -21.786720 0.175781 0.126982 7.091566 7.539000 0.237474 36.563419 -3.647174 3.052501 -6.559517 17.090960 -0.012143 -94.331062 13.658352 -7.848519 -13.654115 1.972523 21.628498 -20.867767 5.355220 -2.047286 6.365854 -7.823350 -0.009615 96.754066 -24.179190 -43.837597 26.364826 -4.572630 62.503620 25.251419 3.693108 1.740314 -18.730171 2.177836 10.748598 56.800686 0.225645 -5.913686 -35.286037 11.584107 -4.156284 -18.758839 -12.859874 -22.637749 14.853088 1.677081 3.707465 16.393782 -7.806704 14.326879 
-0.187909 48.034081 0.512801 -1.623012 2.729697 5.885699 23.861116 -3.212606 -0.763258 -21.864676 0.273437 0.117233 7.471907 7.119111 0.168366 36.556110 -3.266943 3.022130 -6.647454 16.846834 -0.012114 -94.217278 14.054165 -7.985030 -13.446558 2.017205 22.243677 -21.098763 5.228359 -2.023651 6.414642 -8.057733 -0.009609 96.493065 -24.429291 -43.721474 26.399197 -4.529572 61.667355 25.061853 3.596707 1.669974 -18.998531 2.322656 10.688572 58.369740 0.318281 -5.973862 -36.128700 11.375984 -4.112323 -17.966864 -12.789967 -22.785439 14.764456 1.689242 3.674908 16.730381 -7.889769 14.416076 
-0.249343 47.709541 0.789797 -1.602379 2.825726 6.101236 23.652929 -3.290645 -0.861321 -21.816175 0.224609 0.058632 7.620170 6.767567 0.108975 36.693340 -2.925726 2.982107 -6.644552 16.750309 -0.021391 -94.121742 14.343401 -8.080824 -13.327042 2.085832 23.037512 -21.530956 5.240288 -2.073455 6.395095 -8.145619 -0.009607 96.260086 -24.608753 -43.527542 26.528996 -4.512807 61.020760 24.855688 3.576076 1.644805 -19.271469 2.419931 10.526471 59.871868 0.405656 -5.993137 -37.034668 11.118230 -4.069307 -17.153965 -12.795287 -23.072958 14.618203 1.679512 3.666106 16.939243 -7.761207 14.437584 
-0.326496 47.383198 1.072274 -1.626048 2.863346 6.326537 23.524040 -3.388189 -0.968570 -21.923971 0.419922 -0.019531 7.895998 6.279295 0.049603 36.812206 -2.535675 2.961701 -6.696347 16.495279 -0.012073 -94.124016 14.657191 -8.494267 -13.131092 2.151436 23.886833 -21.862160 5.173803 -2.082026 6.463419 -8.350708 -0.009601 96.025368 -24.935646 -43.240101 26.700844 -4.467873 59.908073 24.752207 3.374903 1.544216 -19.490889 2.577975 10.278112 61.380997 0.522974 -6.061475 -37.817513 10.911329 -4.001984 -16.392973 -12.718071 -23.364805 14.647658 1.679551 3.667663 17.041008 -7.811404 14.438250 
-0.403937 47.061150 1.355411 -1.548035 2.920119 6.581107 23.305717 -3.446681 -1.056889 -22.051565 0.458984 -0.097653 8.065399 5.888671 -0.009714 37.056004 -2.165077 2.960928 -6.745212 16.299976 -0.012049 -94.028358 14.998667 -8.697325 -12.956025 2.204471 24.532015 -22.202789 5.098000 -2.087090 6.531752 -8.506970 -0.009595 95.903557 -25.212324 -43.442310 26.839815 -4.440909 59.501083 24.751503 3.672618 1.691846 -19.811607 2.674800 10.000719 62.842945 0.609185 -6.103893 -38.719341 10.763794 -3.874616 -15.673012 -12.664392 -23.701527 14.441373 1.677016 3.666265 17.097383 -7.684247 14.436923 
-0.493494 46.744343 1.649657 -1.456464 2.918539 6.844929 23.127628 -3.524677 -1.154967 -22.365206 0.664060 -0.166004 8.412410 5.419919 -0.058332 37.102581 -1.843274 2.940758 -6.820598 16.037476 -0.021336 -93.968346 15.492211 -8.626386 -12.947305 2.240066 25.105490 -22.578827 5.183565 -2.161966 6.561002 -8.780414 -0.009588 95.853821 -25.621174 -43.503284 26.972204 -4.421755 58.756893 24.827412 3.590542 1.660009 -20.103958 2.850589 9.654974 64.286652 0.707451 -6.097840 -39.619633 10.531034 -3.796297 -14.996397 -12.521715 -24.028589 14.254442 1.689171 3.628483 17.182142 -7.639495 14.438530 
-0.591598 46.421097 1.949639 -1.450083 2.926400 7.138507 23.024446 -3.583195 -1.203706 -22.687729 0.673825 -0.185534 8.648816 5.185530 -0.146768 37.256363 -1.521459 2.920707 -7.028482 15.938696 -0.012001 -93.991692 15.886612 -9.128027 -12.824955 2.306699 25.971756 -23.058603 5.156346 -2.201314 6.580518 -8.868306 -0.009585 95.816986 -26.018333 -43.695644 27.042959 -4.390761 58.168816 24.842468 3.767502 1.742510 -20.386194 2.996848 9.243308 65.766777 0.815143 -6.152707 -40.375935 10.470136 -3.649901 -14.343484 -12.455914 -24.389530 14.224979 1.689126 3.626923 17.110138 -7.735379 14.437245 
-0.699712 46.097366 2.256224 -1.357224 2.934367 7.402826 22.860910 -3.641750 -1.223200 -22.990694 0.673824 -0.205064 8.807781 4.960896 -0.235186 37.418980 -1.209376 2.910744 -7.165219 15.841062 -0.011987 -93.956833 16.233208 -9.299208 -12.750917 2.341225 26.309286 -23.345562 5.217134 -2.257564 6.580511 -8.907370 -0.009584 95.809471 -26.377295 -43.918961 27.143093 -4.366852 57.716301 24.951162 3.799646 1.766008 -20.700996 3.134316 8.814138 67.238235 0.921844 -6.175667 -41.149509 10.424644 -3.474300 -13.777637 -12.349468 -24.707853 14.224979 1.689124 3.626923 16.933783 -7.708323 14.419815 
-0.814257 45.764469 2.567697 -1.348931 2.893869 7.666149 22.785717 -3.690526 -1.253065 -23.362452 0.820307 -0.214822 9.010031 4.677677 -0.283853 37.557838 -0.975303 2.910566 -7.331273 15.636012 -0.011959 -93.979576 16.580837 -9.768451 -12.680686 2.386398 26.919289 -23.627226 5.143283 -2.256010 6.590254 -9.034326 -0.009581 95.753899 -26.678753 -44.165077 27.119438 -4.356035 57.525314 25.166927 3.810675 1.789170 -21.034061 3.310633 8.312457 68.855247 1.035588 -6.216803 -41.805851 10.435252 -3.273441 -13.172038 -12.192577 -25.029186 14.263541 1.710916 3.582554 16.685032 -7.709334 14.334221 
-0.940569 45.429108 2.879447 -1.280820 2.882716 7.881206 22.653076 -3.788116 -1.282308 -23.811531 0.820307 -0.205057 9.309900 4.619067 -0.322792 37.564285 -0.848514 2.910415 -7.484813 15.637310 -0.021280 -94.006882 17.013287 -9.991960 -12.696845 2.410921 27.084623 -24.064863 5.286729 -2.366714 6.600023 -9.014794 -0.009581 95.734932 -26.985815 -44.387829 26.993952 -4.359375 57.527561 25.052042 3.893948 1.818519 -21.416876 3.473780 7.841627 70.464417 1.136334 -6.214453 -42.285366 10.429184 -3.163562 -12.721823 -12.082312 -25.339092 14.470184 1.689263 3.649626 16.186247 -7.788080 14.307053 
-1.071255 45.084873 3.201245 -1.344442 2.852471 8.057250 22.601206 -3.827255 -1.223847 -24.034893 0.761717 -0.126942 9.384144 4.609279 -0.372248 37.668266 -0.721718 2.920059 -7.585188 15.596992 -0.011949 -93.889107 17.144545 -9.906143 -12.688595 2.372883 26.801437 -24.379730 5.532114 -2.511829 6.512143 -8.956186 -0.009584 95.770935 -27.069183 -44.696262 26.943905 -4.380145 57.841888 25.003366 3.926175 1.818732 -21.739714 3.698719 7.350898 72.158752 1.262411 -6.261986 -42.571613 10.445812 -3.032463 -12.186246 -11.910292 -25.567722 14.765488 1.679506 3.673868 15.564811 -7.895950 14.229369 
-1.222052 44.728214 3.526841 -1.409645 2.812559 8.232808 22.581192 -3.866337 -1.204364 -24.356617 0.673827 -0.097650 9.567982 4.628798 -0.391715 37.702724 -0.614419 2.949363 -7.614459 15.743482 -0.011966 -93.921600 17.281193 -9.992545 -12.588003 2.358135 26.479021 -24.565807 5.737551 -2.626649 6.463320 -8.926881 -0.009586 95.847908 -27.101582 -44.986496 26.687370 -4.400882 58.551987 24.805155 4.132453 1.908224 -22.143648 3.973135 6.836247 73.971252 1.389283 -6.281166 -42.522636 10.442883 -3.077370 -11.727405 -11.754441 -25.799946 15.424829 1.669633 3.688210 14.275620 -7.879808 14.014406 
-1.379450 44.370117 3.854447 -1.585521 2.705438 8.349380 22.564341 -3.807873 -1.116012 -24.463230 0.498047 -0.039061 9.628893 4.765535 -0.352781 37.815689 -0.682652 3.007948 -7.575373 15.870428 -0.011982 -93.847397 17.195368 -10.119632 -12.465967 2.322413 26.146997 -24.789879 5.904984 -2.730538 6.404749 -8.790153 -0.009591 95.917885 -26.892233 -45.437679 26.498276 -4.451595 59.592663 24.761957 4.302567 1.982219 -22.516953 4.325397 6.240428 75.870552 1.524939 -6.320508 -42.249733 10.476892 -3.124912 -11.230112 -11.473170 -26.006605 16.181042 1.650262 3.754947 12.566784 -7.985260 13.807982 
-1.535558 44.010071 4.186666 -1.845166 2.656927 8.378640 22.626970 -3.778679 -1.038054 -24.648155 0.332031 0.048884 9.806786 4.824142 -0.322767 37.921127 -0.702105 3.086065 -7.643710 15.997395 -0.011996 -93.887619 17.292185 -10.346290 -12.450923 2.318885 25.982939 -24.988207 5.918073 -2.771726 6.367188 -8.730469 0.001482 95.984123 -26.730028 -45.518509 26.299648 -4.493034 60.460915 24.596493 4.334930 1.981917 -22.861124 4.639045 5.714505 77.829628 1.650321 -6.336686 -41.748047 10.505072 -3.254161 -10.877192 -11.273474 -26.075184 17.517925 1.591528 3.856638 10.025444 -8.290523 13.468648 
-1.705018 43.663986 4.511534 -2.105733 2.560634 8.328961 22.620037 -3.749497 -0.939963 -24.598831 0.351562 0.127011 9.861514 4.794875 -0.254650 38.088947 -0.828813 3.164296 -7.565572 16.065741 -0.012005 -94.001572 17.071724 -10.580209 -12.393841 2.298636 25.734497 -25.040222 5.999474 -2.805963 6.355930 -8.741316 -0.009593 96.033775 -26.331102 -45.606987 26.093687 -4.529974 61.380341 24.362812 4.378582 1.980255 -23.250816 5.009742 5.189274 79.729851 1.788354 -6.344404 -40.958080 10.601576 -3.386809 -10.546708 -10.965939 -26.076338 18.880909 1.562153 3.943377 7.162574 -8.429525 13.069161 
